# xmcd
#
# Track frame offsets: 
#        150
#        3200
#        20140
#        37621
#        55586
#        82741
#        104422
#        138283
#        163397
#        189211
#        204122
#        226440
#        254788
#
# Disc length: 3483 seconds
#
# Revision: 0
# Processed by: cddbd v1.5.1PL0 Copyright (c) Steve Scherf et al.
# Submitted via: ExactAudioCopy v0.95a5
#
DISCID=9a0d990d
DTITLE=PeeWee Bluesgang and Friends - The 25th Anniversary Concert Celeb
DTITLE=ration
DYEAR=2002
DGENRE=Blues
TTITLE0=Backstage Blues
TTITLE1=Bodine City
TTITLE2=Rock on Tiger
TTITLE3=Hi Hi Hazel
TTITLE4=Memories
TTITLE5=Downtown
TTITLE6=Is it Love
TTITLE7=You can't win you can't loose
TTITLE8=Sweet Blue Angel
TTITLE9=Dust my Broom
TTITLE10=Slowhand Blues
TTITLE11=Take it Easy
TTITLE12=Nightfall
EXTD=
EXTT0=
EXTT1=
EXTT2=
EXTT3=
EXTT4=
EXTT5=
EXTT6=
EXTT7=
EXTT8=
EXTT9=
EXTT10=
EXTT11=
EXTT12=
PLAYORDER=
